<svg width="1000" height="1000" xmlns="http://www.w3.org/2000/svg"><defs><linearGradient id="prefix__b" x1="2739.7" x2="7073.7" y1="-5522.1" y2="-1508.1" gradientTransform="matrix(.22659 0 0 .25111 -602.85 1395.7)" gradientUnits="userSpaceOnUse"><stop stop-color="#00b0ff" offset="0"/><stop stop-color="#92feba" offset="1"/></linearGradient><mask id="prefix__a"><g fill="#fff"><path d="M452.08 306.35c0 7.875 6.385 14.261 14.261 14.261s14.261-6.385 14.261-14.261-6.385-14.261-14.261-14.261-14.261 6.385-14.261 14.261"/><path d="M448.09 302.58c0-10.37 8.408-18.778 18.778-18.778 10.372 0 18.778 8.407 18.778 18.778 0 10.372-8.406 18.78-18.778 18.78-10.37 0-18.778-8.408-18.778-18.78zm-144.2 34.725c72.229-9.449 97.948 29.448 131.77 65.456 22.807 28.178 97.443 40.905 120.39 28.902 22.945-12.001-20.772-24.955-20.772-24.955-43.74-10.644-33.669-79.52 4.405-88.339 33.606-8.621 60.193 10.05 64.277-27.912-6.547-3.272-279.98-88.068-279.98-88.068 111 75.672 98.735 116.13 144.21 140.25-133.36-29.926-164.3-5.333-164.3-5.333"/><path d="M941.14 509.83C891.202 336.2 580.81 316.72 580.81 316.72c-18.765.195-85.62-28.88-102.23-44.101 0 0-39.86-8.268-185.51-85.188C147.42 110.514-4.04-.939-4.04-.939s209.79 125.78 354.17 191.95c41.087 18.829 87.145 23.734 131.32 14.172 66.899-14.482 299.93 48.319 414.26 127.28 0 0-188.01-127.7-374.58-148.97 0 0 61.326-121.77 154.5-140.61 55.238 83.78 218.43 62.338 262.8 109.09 34.117 35.942 14.158 127.42 12.802 180.2-1.28 49.802 59.795 149.61 33.714 237.74 6.896 21.752 15.448 60.039 8.336 102-10.975 64.738-32.796 101.11-32.796 101.11s7.926-89.081-18.127-123.63c-18.463 23.125-42.546 45.999-73.226 68.295 0 0 100.32-109.41 72.007-207.84"/><path d="M448.09 608.97s68.681-25.094 131.24 28.005c42.942 36.451 97.471 118.2 158.57 88.743 6.485-3.126 12.757-6.984 18.797-11.373-17.614-8.765-43.528-3.54-43.528-3.54 51.645-15.274 47.643-66.193 47.643-66.193 25.136 2.394 52.876 31.216 59.282 38.917 44.789-26.58 36.171-79.73 26.843-104.19-26.843-70.386-170.14-111.12-281.43-117.67-41.365-2.433-65.816 33.84-65.816 33.84-16.366-80.741 28.484-88.395 28.484-88.395s189.36 16.565 298.1 91.653c52.905 36.53 66.54 82.559 68.412 111.85 9.222 79.086-45.895 116.1-45.895 116.1-27.427 23.62-64.13 44.096-99.983 52.463-47.464 11.075-54.781 15.839-55.215 17.623-.728 2.98-1.077 6.047-2.088 8.943-70.603 202.76-163.33 210.2-163.33 210.2 80.505-58.921 80.977-231.31 80.977-231.31s-22.914-30.55-51.282-96.016c-28.368-65.466-109.78-79.65-109.78-79.65"/></g></mask></defs><path mask="url(#prefix__a)" fill="url(#prefix__b)" d="M0 0h1000v1000H0z"/></svg>