<?xml version="1.0" encoding="utf-8"?>
<svg height="1017px" width="1000px" id="svg2" version="1.1" xmlns="http://www.w3.org/2000/svg" xmlns:bx="https://boxy-svg.com">
  <g transform="matrix(1.92039, 0, 0, -1.92039, -460.19455, 1276.606079)" id="g10" style="" bx:origin="0 1">
    <g transform="scale(0.1)" id="g12">
      <path id="path14" style="fill:#222;fill-opacity:1;fill-rule:nonzero;stroke:none" d="m 4505.67,4975.82 -203.12,355.1 427.54,-391.13 c -85.22,37.84 -224.42,36.03 -224.42,36.03"/>
      <path id="path16" style="fill:#222;fill-opacity:1;fill-rule:nonzero;stroke:none" d="m 4774.27,5043.57 c 0,41.01 33.25,74.26 74.26,74.26 41.01,0 74.26,-33.25 74.26,-74.26 0,-41.01 -33.25,-74.26 -74.26,-74.26 -41.01,0 -74.26,33.25 -74.26,74.26"/>
      <path id="path18" style="fill:#222;fill-opacity:1;fill-rule:nonzero;stroke:none" d="m 4750.75,5067.1 c 0,54 43.78,97.78 97.78,97.78 54.01,0 97.78,-43.78 97.78,-97.78 0,-54.01 -43.77,-97.79 -97.78,-97.79 -54,0 -97.78,43.78 -97.78,97.79 z m -814.67,-290.49 c 301.13,-18.81 573.85,-43.68 749.98,-231.18 118.76,-126.42 187.49,-164.76 306.97,-102.26 119.48,62.49 130.51,147.72 130.51,147.72 -267.03,187.49 -551.11,113.63 -551.11,113.63 0,0 134.13,87.19 220.16,116.47 133.52,45.46 276.85,14.58 341.14,56.57 64.29,41.98 23.9,179.22 -10.19,196.27 -34.09,17.04 -937.46,392.03 -937.46,392.03 l 602.25,-551.12 c -517.03,119.31 -852.25,-138.13 -852.25,-138.13"/>
      <path id="path20" style="fill:#222;fill-opacity:1;fill-rule:nonzero;stroke:none" d="m 7318.18,3987.88 c -260.04,904.13 -1876.33,1005.6 -1876.33,1005.6 0,0 27.06,-357.93 -220.08,-366.45 -247.14,-8.52 -213.05,187.49 -588.02,102.27 0,0 211.86,127.83 425.5,98 213.65,-29.83 124.9,259.78 124.9,259.78 0,0 -482.22,179.1 -1240.68,579.64 -758.46,400.53 -1547.11,980.92 -1547.11,980.92 0,0 1092.46,-654.99 1844.26,-999.52 213.95,-98.05 453.79,-123.59 683.8,-73.8 348.36,75.41 1018.01,99.59 1712,-529.71 0,0 -332.36,545.41 -1303.86,656.2 0,0 383.49,860.72 1116.38,869.24 0,0 -332.36,-715.85 187.48,-1082.29 390.39,-275.2 1141.2,-1031 909.87,-1812.64 35.91,-113.27 80.44,-312.64 43.41,-531.15 -57.15,-337.11 -170.78,-526.5 -170.78,-526.5 0,0 41.27,463.87 -94.39,643.75 -96.14,-120.42 -221.55,-239.53 -381.31,-355.63 0,0 522.39,569.71 374.96,1082.29"/>
      <path id="path22" style="fill:#222;fill-opacity:1;fill-rule:nonzero;stroke:none" d="m 4750.75,3471.61 c 0,0 357.64,130.67 683.39,-145.83 223.61,-189.81 507.56,-615.51 825.73,-462.11 33.77,16.28 66.43,36.37 97.88,59.22 -91.72,45.64 -226.66,18.43 -226.66,18.43 268.93,79.54 248.09,344.69 248.09,344.69 130.89,-12.47 275.34,-162.55 308.7,-202.65 233.23,138.41 188.35,415.17 139.78,542.54 -139.78,366.52 -885.96,578.64 -1465.49,612.73 -215.4,12.67 -238.63,-414.76 -238.63,-414.76 -85.22,420.44 44.23,698.84 44.23,698.84 0,0 986.04,-86.26 1552.31,-477.26 275.49,-190.22 346.49,-429.91 356.24,-582.41 48.02,-411.82 -238.99,-604.58 -238.99,-604.58 -142.82,-123 -333.94,-229.62 -520.64,-273.19 -247.16,-57.67 -285.26,-82.48 -287.52,-91.77 -3.79,-15.52 -5.61,-31.49 -10.87,-46.57 -367.65,-1055.81 -850.53,-1094.57 -850.53,-1094.57 419.21,306.82 421.67,1204.51 421.67,1204.51 0,0 -119.32,159.08 -267.04,499.98 -147.72,340.9 -571.65,414.76 -571.65,414.76"/>
    </g>
  </g>
</svg>